<svg xmlns="http://www.w3.org/2000/svg" fill="currentColor" viewBox="0 0 371.27 466.83">
<g id="Layer_2" data-name="Layer 2"><g id="Layer_1-2" data-name="Layer 1"><path d="M187.63,466.58a2.31,2.31,0,0,1-2.08,0l-4-2c-13.58-6.46-64.74-54.43-111.3-112.41A300.17,300.17,0,0,1,13.39,239.39a188,188,0,0,1-6.52-50A179.72,179.72,0,0,1,184.76,9.67h.18C283.68,10.65,364,91.27,364,189.38a188,188,0,0,1-6.53,50A300.15,300.15,0,0,1,300.67,352.2c-36.47,45.41-92,104.31-109,112.41ZM184.85,27.79A161.59,161.59,0,0,0,25,189.38a168.63,168.63,0,0,0,5.93,45.43A282.19,282.19,0,0,0,84.35,340.86c45.13,56.2,89.28,96.62,102.22,105.7,12.54-9,54.49-49.08,100-105.7a282.16,282.16,0,0,0,53.42-106,168.3,168.3,0,0,0,5.94-45.43C345.9,101.19,273.66,28.72,184.85,27.79Z"/><path class="cls-1" d="M193.59,190.05a4.33,4.33,0,0,1-8.16.32L180.49,178C156.68,118.2,89.91,88.24,69.11,81.33a1.62,1.62,0,0,1-.36-2.89h0A1.64,1.64,0,0,0,69,75.89L58.64,65.79a1.63,1.63,0,0,1,.21-2.53c3.34-2.22,7.09-1.47,8.44-1.2,13.1,2.6,83.6,29,119.24,87.62a1.64,1.64,0,0,0,2.88-.12,205.82,205.82,0,0,1,18.35-30.93c25.45-35.24,58.53-54.87,95.74-56.87a1.66,1.66,0,0,1,1.73,1.58l.58,14.83a1.62,1.62,0,0,1-1.55,1.69c-31.75,1.76-59.17,18.23-81.52,49a188.3,188.3,0,0,0-25.19,48.45Z"/><path class="cls-1" d="M232.85,164.87a53.84,53.84,0,0,1-37.64-15.22l12.58-13a36.13,36.13,0,0,0,50.18-52l12.58-13a54.25,54.25,0,0,1-36.71,93.27Z"/><path class="cls-1" d="M137.61,170.58h-1A54.24,54.24,0,0,1,99.92,77.3l12.58,13a36.13,36.13,0,1,0,50.18,52l12.58,13A53.9,53.9,0,0,1,137.61,170.58Z"/><path class="cls-1" d="M183.87,461.65c-.32,0-.63,0-.91,0-3-.27-8.21-2.08-9-11.14-3.41-39.77-13.76-79.69-30.77-118.66a469.5,469.5,0,0,0-53.4-91.42c-37.21-50.2-73.09-79.27-73.45-79.55L27.69,146.7c1.52,1.23,37.76,30.52,76.34,82.45a488.34,488.34,0,0,1,55.64,95.1,405.26,405.26,0,0,1,27.5,88.82c.07-.23.14-.46.22-.68C211.57,334.68,256.57,190,345.16,139.46l9,15.73c-82.4,47.05-126,187.26-149.46,262.58-3.47,11.15-6.47,20.77-9.14,28.68-.14.4-.42,1.44-.65,2.28-.41,1.54-.88,3.28-1.39,4.77C191.14,460.38,186.77,461.65,183.87,461.65Z"/><path class="cls-1" d="M292.6,80.73l-1.32-18.07.66,9-.68-9c2.41-.18,56.52-5,61.92-53.64A9,9,0,0,1,362.05,1h.31a8.93,8.93,0,0,1,8.86,9.9c-3.38,31.93-23,49.1-39.63,58A107.77,107.77,0,0,1,292.6,80.73Z"/><path class="cls-1" d="M78.66,79.77a107.72,107.72,0,0,1-39-11.83C23,59,3.49,41.88.05,10.07A9.09,9.09,0,0,1,9.07,0h0a9.09,9.09,0,0,1,9,8.15C20.23,27.66,30.35,42.38,48.23,52A89.3,89.3,0,0,0,80,61.7Z"/></g></g></svg>