<svg width="12" height="12" viewBox="0 0 12 12" fill="none" xmlns="http://www.w3.org/2000/svg">
<path d="M6 0C2.68661 0 0 2.68661 0 6C0 9.31339 2.68661 12 6 12C9.31339 12 12 9.31339 12 6C12 2.68661 9.31339 0 6 0ZM6 10.9821C3.24911 10.9821 1.01786 8.75089 1.01786 6C1.01786 3.24911 3.24911 1.01786 6 1.01786C8.75089 1.01786 10.9821 3.24911 10.9821 6C10.9821 8.75089 8.75089 10.9821 6 10.9821ZM6.075 3.84777C6.78482 3.84777 7.26696 4.30045 7.32054 4.96473C7.32455 5.02098 7.37143 5.06384 7.42768 5.06384H8.18705C8.22188 5.06384 8.25 5.03571 8.25 5.00089C8.25 3.83973 7.33393 3.02679 6.07098 3.02679C4.59911 3.02679 3.75 4.02054 3.75 5.6625V6.36295C3.75 7.99286 4.59911 8.97321 6.07098 8.97321C7.32991 8.97321 8.25 8.18571 8.25 7.07946C8.25 7.04464 8.22188 7.01652 8.18705 7.01652H7.42634C7.37009 7.01652 7.32455 7.05938 7.3192 7.11429C7.26295 7.7317 6.78214 8.15625 6.07366 8.15625C5.19911 8.15625 4.70625 7.51473 4.70625 6.36696V5.6625C4.70759 4.49732 5.20179 3.84777 6.075 3.84777Z" fill="black"/>
</svg>
