<svg width="12" height="12" viewBox="0 0 12 12" fill="none" xmlns="http://www.w3.org/2000/svg">
<path d="M11.5045 2.94107C11.325 2.52541 11.0662 2.14874 10.7425 1.83214C10.4185 1.51461 10.0366 1.26227 9.61748 1.08884C9.18285 0.908295 8.71669 0.815882 8.24605 0.816965C7.58578 0.816965 6.94159 0.997769 6.38177 1.33929C6.24784 1.42098 6.12061 1.51072 6.00007 1.60848C5.87953 1.51072 5.7523 1.42098 5.61837 1.33929C5.05855 0.997769 4.41436 0.816965 3.75409 0.816965C3.27864 0.816965 2.81793 0.908036 2.38266 1.08884C1.96212 1.26295 1.58311 1.51339 1.25766 1.83214C0.933547 2.14838 0.674638 2.52514 0.495605 2.94107C0.309445 3.37366 0.214355 3.83304 0.214355 4.3058C0.214355 4.75179 0.305427 5.21652 0.486231 5.68929C0.63757 6.08438 0.854534 6.4942 1.13177 6.90804C1.57105 7.56295 2.17507 8.24598 2.92507 8.93839C4.16793 10.0862 5.39873 10.879 5.45096 10.9112L5.76837 11.1147C5.909 11.2045 6.0898 11.2045 6.23043 11.1147L6.54784 10.9112C6.60007 10.8777 7.82953 10.0862 9.07373 8.93839C9.82373 8.24598 10.4277 7.56295 10.867 6.90804C11.1443 6.4942 11.3626 6.08438 11.5126 5.68929C11.6934 5.21652 11.7844 4.75179 11.7844 4.3058C11.7858 3.83304 11.6907 3.37366 11.5045 2.94107ZM6.00007 10.0554C6.00007 10.0554 1.23221 7.00045 1.23221 4.3058C1.23221 2.94107 2.36123 1.83482 3.75409 1.83482C4.73311 1.83482 5.58221 2.38125 6.00007 3.17946C6.41793 2.38125 7.26703 1.83482 8.24605 1.83482C9.63891 1.83482 10.7679 2.94107 10.7679 4.3058C10.7679 7.00045 6.00007 10.0554 6.00007 10.0554Z" fill="black"/>
</svg>
