<svg width="10" height="14" viewBox="0 0 10 14" fill="none" xmlns="http://www.w3.org/2000/svg">
<path d="M8.25 0H1C0.448438 0 0 0.448438 0 1V13C0 13.5516 0.448438 14 1 14H8.25C8.80156 14 9.25 13.5516 9.25 13V1C9.25 0.448438 8.80156 0 8.25 0ZM8.125 12.875H1.125V1.125H8.125V12.875ZM4 11.2812C4 11.447 4.06585 11.606 4.18306 11.7232C4.30027 11.8404 4.45924 11.9062 4.625 11.9062C4.79076 11.9062 4.94973 11.8404 5.06694 11.7232C5.18415 11.606 5.25 11.447 5.25 11.2812C5.25 11.1155 5.18415 10.9565 5.06694 10.8393C4.94973 10.7221 4.79076 10.6562 4.625 10.6562C4.45924 10.6562 4.30027 10.7221 4.18306 10.8393C4.06585 10.9565 4 11.1155 4 11.2812Z" fill="#D9D9D9"/>
</svg>
