<svg width="14" height="12" viewBox="0 0 14 12" fill="none" xmlns="http://www.w3.org/2000/svg">
<path d="M13.7219 5.59688C12.2407 2.47656 10.0016 0.90625 7.00003 0.90625C3.9969 0.90625 1.7594 2.47656 0.278154 5.59844C0.218741 5.72425 0.187927 5.86165 0.187927 6.00078C0.187927 6.13991 0.218741 6.27732 0.278154 6.40313C1.7594 9.52344 3.99847 11.0938 7.00003 11.0938C10.0032 11.0938 12.2407 9.52344 13.7219 6.40156C13.8422 6.14844 13.8422 5.85469 13.7219 5.59688ZM7.00003 9.96875C4.47972 9.96875 2.6344 8.69063 1.33284 6C2.6344 3.30938 4.47972 2.03125 7.00003 2.03125C9.52034 2.03125 11.3657 3.30938 12.6672 6C11.3672 8.69063 9.5219 9.96875 7.00003 9.96875ZM6.93753 3.25C5.41878 3.25 4.18753 4.48125 4.18753 6C4.18753 7.51875 5.41878 8.75 6.93753 8.75C8.45628 8.75 9.68753 7.51875 9.68753 6C9.68753 4.48125 8.45628 3.25 6.93753 3.25ZM6.93753 7.75C5.97034 7.75 5.18753 6.96719 5.18753 6C5.18753 5.03281 5.97034 4.25 6.93753 4.25C7.90472 4.25 8.68753 5.03281 8.68753 6C8.68753 6.96719 7.90472 7.75 6.93753 7.75Z" fill="#D9D9D9"/>
</svg>
